<svg xmlns="http://www.w3.org/2000/svg" version="1.1" viewBox="-5.0 -10.0 110.0 135.0">
 <path d="m85.461 26.609c1.0469 22.746-18.039 44.312-41.18 42.484-6.8008-0.52344-12.941-3.1406-16.734-6.6641-3.918 3.6562-7.3164 7.7109-8.7539 12.414-0.39062 1.1758-1.5664 1.832-2.7461 1.4375-1.1758-0.26172-1.8281-1.5664-1.4375-2.7461 1.6953-5.6211 5.4883-10.195 10.062-14.508-3.2695-5.75-2.7461-13.594 0.26172-19.348 1.4414-2.8789 3.5312-5.3633 6.4023-7.4531 6.4062-4.8359 12.422-5.3594 19.867-4.8359 25.625 1.9648 31.766-2.0898 31.766-2.0898l2.3516-1.7031zm-26.406 15.691c-18.039 8.1016-22.617 12.023-26.402 15.418-0.91406 0.92188-1.832 1.7031-2.6172 2.4844 3.2695 2.8711 8.4961 5.0977 14.512 5.4883 20.914 1.6953 36.602-16.605 37.648-36.598-3.9219 1.3047-11.5 3.2695-31.242 1.6992-7.8398-0.65234-13.59 1.1758-17.645 4.0547-2.3516 1.8281-4.1836 3.9219-5.3594 6.2734-2.3516 4.5742-3.1406 10.852-0.65625 15.555 0.78906-0.78516 1.832-1.5664 2.7461-2.3516 2.0859-1.8281 13.07-9.543 29.016-12.023z"/>
<text x="0.0" y="117.5" font-size="5.0" font-weight="bold" font-family="Arbeit Regular, Helvetica, Arial-Unicode, Arial, Sans-serif" fill="#000000">Created by Analyticicon</text><text x="0.0" y="122.5" font-size="5.0" font-weight="bold" font-family="Arbeit Regular, Helvetica, Arial-Unicode, Arial, Sans-serif" fill="#000000">from Noun Project</text></svg>